<svg width="260" height="260" viewBox="0 0 260 260" fill="none" xmlns="http://www.w3.org/2000/svg">
<rect width="260" height="260" rx="40" fill="#FF5E27"/>
<path d="M200.45 147.403C200.45 185.842 169.079 217 130.377 217C91.6756 217 60.3047 185.842 60.3047 147.403C60.3049 108.965 91.6758 77.8073 130.396 77.7891C145.386 77.7891 159.28 82.4738 170.688 90.4629V43H200.45V147.403ZM130.395 107.385C108.146 107.385 90.1026 125.306 90.1025 147.403C90.1025 169.501 108.146 187.422 130.395 187.422C152.643 187.422 170.687 169.501 170.687 147.403C170.686 125.306 152.643 107.385 130.395 107.385Z" fill="black"/>
</svg>
